<svg width="64" height="64" viewBox="0 0 64 64" fill="none" xmlns="http://www.w3.org/2000/svg">
  <defs>
    <linearGradient id="backgroundGradient" x1="0%" y1="0%" x2="0%" y2="100%">
      <stop offset="0%" style="stop-color:#22c55e;stop-opacity:1" />
      <stop offset="100%" style="stop-color:#16a34a;stop-opacity:1" />
    </linearGradient>
    <filter id="shadow" x="-20%" y="-20%" width="140%" height="140%">
      <feDropShadow dx="0" dy="4" stdDeviation="4" flood-color="#000000" flood-opacity="0.15"/>
    </filter>
  </defs>
  
  <!-- Background with rounded corners -->
  <rect x="4" y="4" width="56" height="56" rx="16" ry="16" fill="url(#backgroundGradient)" filter="url(#shadow)"/>
  
  <!-- Main leaf -->
  <path d="M32 12 C24 12, 18 18, 18 26 C18 30, 20 34, 24 36 C26 38, 28 40, 30 42 C32 40, 34 38, 36 36 C40 34, 42 30, 42 26 C42 18, 36 12, 32 12 Z" 
        fill="#064e3b" 
        stroke="#0f172a" 
        stroke-width="0.5"/>
  
  <!-- Leaf vein -->
  <path d="M32 12 L32 42" 
        stroke="#0f172a" 
        stroke-width="1" 
        opacity="0.3"/>
  
  <!-- Small accent dots -->
  <circle cx="28" cy="20" r="1" fill="#ffffff" opacity="0.6"/>
  <circle cx="36" cy="24" r="1" fill="#ffffff" opacity="0.6"/>
  <circle cx="26" cy="30" r="1" fill="#ffffff" opacity="0.6"/>
  <circle cx="38" cy="32" r="1" fill="#ffffff" opacity="0.6"/>
</svg>
