<svg width="128" height="128" viewBox="0 0 128 128" fill="none" xmlns="http://www.w3.org/2000/svg">
  <defs>
    <linearGradient id="backgroundGradient" x1="0%" y1="0%" x2="0%" y2="100%">
      <stop offset="0%" style="stop-color:#22c55e;stop-opacity:1" />
      <stop offset="100%" style="stop-color:#16a34a;stop-opacity:1" />
    </linearGradient>
    <filter id="shadow" x="-20%" y="-20%" width="140%" height="140%">
      <feDropShadow dx="0" dy="8" stdDeviation="8" flood-color="#000000" flood-opacity="0.15"/>
    </filter>
  </defs>
  
  <!-- Background with rounded corners -->
  <rect x="8" y="8" width="112" height="112" rx="32" ry="32" fill="url(#backgroundGradient)" filter="url(#shadow)"/>
  
  <!-- Main leaf -->
  <path d="M64 24 C48 24, 36 36, 36 52 C36 60, 40 68, 48 72 C52 76, 56 80, 60 84 C64 80, 68 76, 72 72 C80 68, 84 60, 84 52 C84 36, 72 24, 64 24 Z" 
        fill="#064e3b" 
        stroke="#0f172a" 
        stroke-width="1"/>
  
  <!-- Leaf vein -->
  <path d="M64 24 L64 84" 
        stroke="#0f172a" 
        stroke-width="2" 
        opacity="0.3"/>
  
  <!-- Small accent dots -->
  <circle cx="56" cy="40" r="2" fill="#ffffff" opacity="0.6"/>
  <circle cx="72" cy="48" r="2" fill="#ffffff" opacity="0.6"/>
  <circle cx="52" cy="60" r="2" fill="#ffffff" opacity="0.6"/>
  <circle cx="76" cy="64" r="2" fill="#ffffff" opacity="0.6"/>
</svg>
